TITLE ""
FILE "P1Q_j_1856-1869.mp3" MP3
  TRACK 01 AUDIO
    TITLE "P1Q_j_1856-1869_01"
    INDEX 01 00:00:00
  TRACK 02 AUDIO
    TITLE "P1Q_j_1856-1869_02"
    INDEX 01 00:01:31
  TRACK 03 AUDIO
    TITLE "P1Q_j_1856-1869_03"
    INDEX 01 00:01:53
  TRACK 04 AUDIO
    TITLE "P1Q_j_1856-1869_04"
    INDEX 01 00:05:64
  TRACK 05 AUDIO
    TITLE "P1Q_j_1856-1869_05"
    INDEX 01 00:06:09
  TRACK 06 AUDIO
    TITLE "P1Q_j_1856-1869_06"
    INDEX 01 00:09:27
  TRACK 07 AUDIO
    TITLE "P1Q_j_1856-1869_07"
    INDEX 01 00:09:72
  TRACK 08 AUDIO
    TITLE "P1Q_j_1856-1869_08"
    INDEX 01 00:11:45
  TRACK 09 AUDIO
    TITLE "P1Q_j_1856-1869_09"
    INDEX 01 00:11:65
  TRACK 10 AUDIO
    TITLE "P1Q_j_1856-1869_10"
    INDEX 01 00:16:27
  TRACK 11 AUDIO
    TITLE "P1Q_j_1856-1869_11"
    INDEX 01 00:16:49
  TRACK 12 AUDIO
    TITLE "P1Q_j_1856-1869_12"
    INDEX 01 00:21:69
  TRACK 13 AUDIO
    TITLE "P1Q_j_1856-1869_13"
    INDEX 01 00:22:41
  TRACK 14 AUDIO
    TITLE "P1Q_j_1856-1869_14"
    INDEX 01 00:23:70
  TRACK 15 AUDIO
    TITLE "P1Q_j_1856-1869_15"
    INDEX 01 00:24:15
  TRACK 16 AUDIO
    TITLE "P1Q_j_1856-1869_16"
    INDEX 01 00:28:58
  TRACK 17 AUDIO
    TITLE "P1Q_j_1856-1869_17"
    INDEX 01 00:29:02
  TRACK 18 AUDIO
    TITLE "P1Q_j_1856-1869_18"
    INDEX 01 00:32:18
  TRACK 19 AUDIO
    TITLE "P1Q_j_1856-1869_19"
    INDEX 01 00:32:63
  TRACK 20 AUDIO
    TITLE "P1Q_j_1856-1869_20"
    INDEX 01 00:34:27
  TRACK 21 AUDIO
    TITLE "P1Q_j_1856-1869_21"
    INDEX 01 00:34:46
  TRACK 22 AUDIO
    TITLE "P1Q_j_1856-1869_22"
    INDEX 01 00:36:75
  TRACK 23 AUDIO
    TITLE "P1Q_j_1856-1869_23"
    INDEX 01 00:37:17
  TRACK 24 AUDIO
    TITLE "P1Q_j_1856-1869_24"
    INDEX 01 00:42:01
  TRACK 25 AUDIO
    TITLE "P1Q_j_1856-1869_25"
    INDEX 01 00:42:46
  TRACK 26 AUDIO
    TITLE "P1Q_j_1856-1869_26"
    INDEX 01 00:43:73
  TRACK 27 AUDIO
    TITLE "P1Q_j_1856-1869_27"
    INDEX 01 00:44:21
  TRACK 28 AUDIO
    TITLE "P1Q_j_1856-1869_28"
    INDEX 01 00:49:48
  TRACK 29 AUDIO
    TITLE "P1Q_j_1856-1869_29"
    INDEX 01 00:49:70
  TRACK 30 AUDIO
    TITLE "P1Q_j_1856-1869_30"
    INDEX 01 00:54:33
  TRACK 31 AUDIO
    TITLE "P1Q_j_1856-1869_31"
    INDEX 01 00:55:03
  TRACK 32 AUDIO
    TITLE "P1Q_j_1856-1869_32"
    INDEX 01 00:56:26
  TRACK 33 AUDIO
    TITLE "P1Q_j_1856-1869_33"
    INDEX 01 00:56:50
  TRACK 34 AUDIO
    TITLE "P1Q_j_1856-1869_34"
    INDEX 01 00:58:55
  TRACK 35 AUDIO
    TITLE "P1Q_j_1856-1869_35"
    INDEX 01 00:58:72
  TRACK 36 AUDIO
    TITLE "P1Q_j_1856-1869_36"
    INDEX 01 01:04:48
  TRACK 37 AUDIO
    TITLE "P1Q_j_1856-1869_37"
    INDEX 01 01:05:18
  TRACK 38 AUDIO
    TITLE "P1Q_j_1856-1869_38"
    INDEX 01 01:06:46
  TRACK 39 AUDIO
    TITLE "P1Q_j_1856-1869_39"
    INDEX 01 01:06:66
  TRACK 40 AUDIO
    TITLE "P1Q_j_1856-1869_40"
    INDEX 01 01:14:52
  TRACK 41 AUDIO
    TITLE "P1Q_j_1856-1869_41"
    INDEX 01 01:14:73
  TRACK 42 AUDIO
    TITLE "P1Q_j_1856-1869_42"
    INDEX 01 01:19:73
  TRACK 43 AUDIO
    TITLE "P1Q_j_1856-1869_43"
    INDEX 01 01:20:41
  TRACK 44 AUDIO
    TITLE "P1Q_j_1856-1869_44"
    INDEX 01 01:21:71
  TRACK 45 AUDIO
    TITLE "P1Q_j_1856-1869_45"
    INDEX 01 01:22:16
  TRACK 46 AUDIO
    TITLE "P1Q_j_1856-1869_46"
    INDEX 01 01:25:61
  TRACK 47 AUDIO
    TITLE "P1Q_j_1856-1869_47"
    INDEX 01 01:26:06
  TRACK 48 AUDIO
    TITLE "P1Q_j_1856-1869_48"
    INDEX 01 01:29:51
  TRACK 49 AUDIO
    TITLE "P1Q_j_1856-1869_49"
    INDEX 01 01:30:21
  TRACK 50 AUDIO
    TITLE "P1Q_j_1856-1869_50"
    INDEX 01 01:31:56
  TRACK 51 AUDIO
    TITLE "P1Q_j_1856-1869_51"
    INDEX 01 01:32:01
  TRACK 52 AUDIO
    TITLE "P1Q_j_1856-1869_52"
    INDEX 01 01:37:53
  TRACK 53 AUDIO
    TITLE "P1Q_j_1856-1869_53"
    INDEX 01 01:37:70
  TRACK 54 AUDIO
    TITLE "P1Q_j_1856-1869_54"
    INDEX 01 01:43:16
  TRACK 55 AUDIO
    TITLE "P1Q_j_1856-1869_55"
    INDEX 01 01:43:65
  TRACK 56 AUDIO
    TITLE "P1Q_j_1856-1869_56"
    INDEX 01 01:45:03
  TRACK 57 AUDIO
    TITLE "P1Q_j_1856-1869_57"
    INDEX 01 01:45:25
  TRACK 58 AUDIO
    TITLE "P1Q_j_1856-1869_58"
    INDEX 01 01:49:68
  TRACK 59 AUDIO
    TITLE "P1Q_j_1856-1869_59"
    INDEX 01 01:50:14
  TRACK 60 AUDIO
    TITLE "P1Q_j_1856-1869_60"
    INDEX 01 01:53:09
  TRACK 61 AUDIO
    TITLE "P1Q_j_1856-1869_61"
    INDEX 01 01:53:56
  TRACK 62 AUDIO
    TITLE "P1Q_j_1856-1869_62"
    INDEX 01 01:55:64
  TRACK 63 AUDIO
    TITLE "P1Q_j_1856-1869_63"
    INDEX 01 01:56:09
  TRACK 64 AUDIO
    TITLE "P1Q_j_1856-1869_64"
    INDEX 01 01:58:57
  TRACK 65 AUDIO
    TITLE "P1Q_j_1856-1869_65"
    INDEX 01 01:59:04
  TRACK 66 AUDIO
    TITLE "P1Q_j_1856-1869_66"
    INDEX 01 02:02:57
  TRACK 67 AUDIO
    TITLE "P1Q_j_1856-1869_67"
    INDEX 01 02:03:29
  TRACK 68 AUDIO
    TITLE "P1Q_j_1856-1869_68"
    INDEX 01 02:05:59
  TRACK 69 AUDIO
    TITLE "P1Q_j_1856-1869_69"
    INDEX 01 02:06:04
  TRACK 70 AUDIO
    TITLE "P1Q_j_1856-1869_70"
    INDEX 01 02:08:55
  TRACK 71 AUDIO
    TITLE "P1Q_j_1856-1869_71"
    INDEX 01 02:08:75
  TRACK 72 AUDIO
    TITLE "P1Q_j_1856-1869_72"
    INDEX 01 02:12:75
  TRACK 73 AUDIO
    TITLE "P1Q_j_1856-1869_73"
    INDEX 01 02:13:47
  TRACK 74 AUDIO
    TITLE "P1Q_j_1856-1869_74"
    INDEX 01 02:14:66
  TRACK 75 AUDIO
    TITLE "P1Q_j_1856-1869_75"
    INDEX 01 02:15:12
  TRACK 76 AUDIO
    TITLE "P1Q_j_1856-1869_76"
    INDEX 01 02:19:69
  TRACK 77 AUDIO
    TITLE "P1Q_j_1856-1869_77"
    INDEX 01 02:20:13
  TRACK 78 AUDIO
    TITLE "P1Q_j_1856-1869_78"
    INDEX 01 02:23:45
  TRACK 79 AUDIO
    TITLE "P1Q_j_1856-1869_79"
    INDEX 01 02:24:17
  TRACK 80 AUDIO
    TITLE "P1Q_j_1856-1869_80"
    INDEX 01 02:25:50
  TRACK 81 AUDIO
    TITLE "P1Q_j_1856-1869_81"
    INDEX 01 02:25:69
  TRACK 82 AUDIO
    TITLE "P1Q_j_1856-1869_82"
    INDEX 01 02:27:72
  TRACK 83 AUDIO
    TITLE "P1Q_j_1856-1869_83"
    INDEX 01 02:28:15
  TRACK 84 AUDIO
    TITLE "P1Q_j_1856-1869_84"
    INDEX 01 02:32:28
